<svg width="333" height="60" viewBox="0 0 333 60" fill="none" xmlns="http://www.w3.org/2000/svg">
<g clip-path="url(#clip0)">
<path fill-rule="evenodd" clip-rule="evenodd" d="M74.0783 11.3069C72.9199 10.8244 71.5757 11.3722 71.091 12.5244C70.4121 14.1375 70.1026 16.3946 73.2294 17.7212C69.9877 19.6913 62.8407 24.5457 60.3089 26.0391L69.5487 17.2242H69.5498C67.7502 16.0049 67.0203 13.3971 67.9401 11.2112C69.15 8.33569 72.5078 6.96706 75.3966 8.17176C76.8258 8.76739 77.8845 9.88574 78.4431 11.2124C79.785 10.678 81.329 10.6441 82.7582 11.2404C85.6476 12.4451 87.0222 15.7861 85.8123 18.661C85.2138 20.0833 84.0895 21.1369 82.757 21.6929C83.294 23.0277 83.328 24.5643 82.7295 25.9866C81.5195 28.8621 78.1618 30.2307 75.2724 29.0261C73.0395 28.095 72.0324 25.454 72.5236 23.3007L67.6288 24.2715L74.4523 20.6941C73.5472 23.5691 74.971 25.216 76.5913 25.8915C77.7491 26.374 79.0938 25.8262 79.5786 24.674C80.1302 23.3631 79.1642 20.539 77.4396 19.4766C79.4502 19.7771 82.1098 18.6593 82.6615 17.3484C83.1462 16.1956 82.5958 14.8579 81.438 14.3755C80.1203 13.8259 77.5245 14.6164 76.2156 16.5043C76.3475 14.148 75.3943 11.8564 74.0765 11.3069H74.0783Z" fill="#F7A30A"/>
<path fill-rule="evenodd" clip-rule="evenodd" d="M26.4644 4.39313C26.4316 4.27587 26.4063 4.15511 26.3882 4.03202C26.319 3.55364 26.3688 3.07468 26.5529 2.62547C27.2071 1.02816 29.2178 0.473359 30.7701 0.250506C32.3229 0.0276521 34.4092 -0.00618424 35.4902 1.3426C35.7604 1.6798 35.9363 2.0695 36.0207 2.48896C42.2696 2.04734 49.5485 4.2677 55.0084 7.33573C62.7938 11.7111 67.1587 22.6415 61.0387 21.806C52.2691 20.6089 29.9365 17.4137 16.0452 27.6615C15.2468 34.5052 17.0124 39.9989 18.91 42.9532C24.1319 51.0798 27.5242 50.1038 36.3349 50.1038C45.1461 50.1038 48.5379 51.0798 53.7598 42.9532C55.8954 39.6302 56.923 35.7951 56.988 31.866C57.0144 30.2832 58.3691 29.3819 59.847 29.3982H69.133C70.2333 29.3982 71.217 30.1117 71.2914 31.2546C71.3688 32.4406 70.4121 33.3238 69.2632 33.3863C68.4583 33.43 67.368 34.1248 66.6411 34.7205C66.1909 39.5141 64.5946 44.1141 61.9854 48.1751C59.1916 52.5219 55.8027 56.9399 50.7338 58.7175C48.6499 59.4485 46.4639 59.7022 44.2674 59.8002C41.6354 59.9175 38.9699 59.8434 36.3337 59.8434C33.6976 59.8434 31.0321 59.9175 28.4 59.8002C26.2035 59.7022 24.0182 59.4485 21.9342 58.7175C16.8647 56.9399 13.4759 52.5219 10.6826 48.1751C8.14256 44.2227 6.57388 39.7796 6.07092 35.1551C5.61368 34.7 4.89147 34.1919 4.47468 33.9498C4.05203 33.7042 3.44824 33.4137 2.95172 33.3863C1.80276 33.3238 0.846076 32.44 0.923455 31.254C0.997903 30.1111 1.98155 29.3976 3.08245 29.3976H5.9824C6.46074 22.7196 8.90111 16.506 13.6898 11.6032C16.9597 8.25515 22.1464 5.86793 26.4632 4.39255L26.4644 4.39313Z" fill="#EF5350"/>
</g>
<path d="M120.883 36.6519C120.717 38.2166 120.277 39.6192 119.561 40.8599C118.846 42.1011 117.91 43.18 116.809 44.0972C115.708 45.0144 114.442 45.7155 113.065 46.2012C111.634 46.6866 110.093 46.9566 108.441 46.9566C106.625 46.9566 104.918 46.6866 103.432 46.0394C101.89 45.4458 100.569 44.5825 99.468 43.3418C98.367 42.155 97.5416 40.6442 96.9359 38.8637C96.3302 37.0833 96 35.0332 96 32.6596C96 30.2856 96.3302 28.2355 96.9359 26.5094C97.5416 24.7828 98.3671 23.38 99.468 22.247C100.569 21.168 101.89 20.3588 103.487 19.8195C105.028 19.2798 106.735 19.0101 108.662 19.0101C110.423 19.0101 112.019 19.2258 113.506 19.7112C114.937 20.197 116.203 20.8445 117.305 21.7616C118.35 22.6788 119.231 23.7578 119.837 24.9986C120.442 26.2393 120.828 27.6422 120.938 29.2066H113.726C113.561 27.8579 113.01 26.779 112.075 25.9697C111.139 25.2143 109.983 24.8368 108.607 24.8368C107.836 24.8368 107.12 24.9446 106.46 25.2143C105.799 25.4839 105.248 25.8618 104.753 26.4551C104.257 27.0487 103.817 27.858 103.542 28.8291C103.266 29.8541 103.101 31.0409 103.101 32.4978C103.101 35.4111 103.652 37.5691 104.698 38.9716C105.744 40.3746 107.01 41.076 108.386 41.076C109.763 41.076 110.974 40.6981 111.964 39.9427C112.955 39.1876 113.506 38.1087 113.671 36.6518H120.883V36.6519ZM139.435 33.2531C139.049 33.6306 138.554 33.9003 137.838 34.116C137.123 34.3321 136.132 34.5478 134.81 34.8175C132.773 35.1954 131.342 35.7347 130.571 36.3283C129.801 36.9216 129.415 37.8388 129.415 38.9716C129.415 40.9681 130.571 41.9392 132.884 41.9392C133.819 41.9392 134.645 41.7771 135.471 41.4535C136.242 41.1838 136.902 40.752 137.508 40.2127C138.058 39.7269 138.499 39.0798 138.884 38.3783C139.214 37.6768 139.379 36.9754 139.379 36.1664L139.434 33.2531H139.435ZM139.93 46.2551C139.71 45.5537 139.545 44.7983 139.49 43.8815C138.664 44.7983 137.508 45.5537 136.132 46.0933C134.755 46.6866 133.104 46.9566 131.287 46.9566C128.149 46.9566 125.892 46.3091 124.461 44.9065C122.974 43.5575 122.259 41.8311 122.259 39.6731C122.259 37.7848 122.589 36.2204 123.195 35.0872C123.8 33.9542 124.681 33.091 125.782 32.4439C126.883 31.7963 128.204 31.3109 129.746 30.987C131.232 30.7173 132.884 30.4477 134.7 30.1777C136.517 29.908 137.728 29.5844 138.334 29.1526C138.939 28.7751 139.27 28.0736 139.27 27.1565C139.27 26.2932 138.884 25.5921 138.058 25.1064C137.233 24.621 136.077 24.4049 134.7 24.4049C133.049 24.4049 131.893 24.7828 131.177 25.4839C130.461 26.1854 129.966 27.1565 129.801 28.3433H123.14C123.195 26.9947 123.415 25.7 123.855 24.5671C124.241 23.4338 124.956 22.4088 125.892 21.5995C126.828 20.7905 128.039 20.143 129.526 19.6573C131.012 19.2259 132.884 19.0101 135.031 19.0101C137.178 19.0101 138.994 19.2258 140.481 19.7112C141.967 20.197 143.123 20.8445 144.059 21.7077C144.94 22.6249 145.6 23.7038 145.986 24.9986C146.371 26.3472 146.591 27.804 146.591 29.4766V46.2552H139.93L139.93 46.2551ZM149.729 46.2551V19.7112H156.445V22.8945C157.051 21.9773 157.656 21.2758 158.317 20.7905C158.922 20.3048 159.583 19.8733 160.298 19.6033C160.959 19.3336 161.62 19.1718 162.335 19.1179C163.051 19.064 163.767 19.01 164.482 19.01H165.418V26.1853C164.758 26.0775 164.097 26.0235 163.436 26.0235C159.087 26.0235 156.885 28.1815 156.885 32.4438V46.2551H149.729V46.2551ZM167.565 46.2551V19.7112H174.722V46.2551H167.565ZM167.565 16.5282V10.0001H174.722V16.5282H167.565ZM195.31 46.2551V30.1777C195.31 28.1276 194.98 26.725 194.264 26.0235C193.549 25.3221 192.393 24.9446 190.686 24.9446C186.998 24.9446 185.126 26.9946 185.126 31.0408V46.2551H177.969V19.7111H184.796V23.5959C185.621 22.0851 186.777 20.9522 188.154 20.1429C189.53 19.3875 191.347 19.01 193.549 19.01C194.815 19.01 196.026 19.1718 197.127 19.5493C198.228 19.9272 199.164 20.5204 199.99 21.2758C200.76 22.0312 201.366 22.9484 201.861 24.0274C202.302 25.1603 202.522 26.401 202.522 27.8579V46.2551H195.31V46.2551Z" fill="#EF5350"/>
<path d="M218.318 41.989C220.056 41.989 221.569 41.2707 222.746 39.8344C223.924 38.3977 224.484 36.5193 224.484 34.199C224.484 28.2874 222.466 25.3592 218.374 25.3592C214.17 25.3592 212.095 28.1769 212.095 33.7568C212.095 36.1879 212.656 38.1768 213.833 39.6683C215.011 41.2154 216.468 41.9889 218.318 41.9889L218.318 41.989ZM224.372 47.1271L224.316 43.8123C222.634 46.5192 220.056 47.8454 216.636 47.8454C214.898 47.8454 213.272 47.5137 211.815 46.8509C210.358 46.1878 209.124 45.2485 208.059 43.978C206.994 42.7074 206.209 41.2155 205.593 39.3922C204.976 37.5689 204.696 35.5248 204.696 33.2598C204.696 31.2156 204.976 29.2819 205.481 27.5691C205.985 25.8563 206.714 24.42 207.667 23.1494C208.62 21.8784 209.853 20.9392 211.254 20.2212C212.656 19.5581 214.225 19.2267 216.019 19.2267C219.439 19.2267 222.13 20.6631 224.204 23.4807V10H231.38V47.127H224.372V47.1271ZM252.738 30.8842C252.682 29.8897 252.513 29.0057 252.233 28.2322C251.897 27.5139 251.448 26.8507 250.944 26.3537C250.439 25.8563 249.822 25.5249 249.15 25.2487C248.477 25.0278 247.804 24.9174 247.076 24.9174C245.618 24.9174 244.385 25.4144 243.32 26.4641C242.254 27.5138 241.638 29.0057 241.47 30.8842H252.738H252.738ZM241.246 35.4144C241.358 37.4585 241.974 39.1161 243.096 40.3315C244.161 41.5469 245.618 42.1548 247.412 42.1548C248.589 42.1548 249.654 41.8786 250.607 41.326C251.504 40.8289 252.065 40.0553 252.345 39.1162H259.857C259.016 41.9339 257.502 44.0885 255.372 45.58C253.242 47.0719 250.72 47.8454 247.748 47.8454C238.555 47.8454 233.958 42.9283 233.958 33.0389C233.958 30.9395 234.238 29.061 234.855 27.3482C235.472 25.6353 236.312 24.1991 237.49 22.9837C238.611 21.7679 240.012 20.8287 241.638 20.166C243.264 19.5581 245.17 19.2267 247.3 19.2267C251.56 19.2267 254.812 20.5526 256.998 23.2598C259.184 25.9671 260.249 30.0002 260.249 35.4144H241.246H241.246ZM262.772 47.1271V19.9447H269.611V23.2046C270.228 22.2653 270.844 21.547 271.517 21.05C272.134 20.5526 272.806 20.1108 273.535 19.8343C274.208 19.5581 274.881 19.3924 275.609 19.3372C276.338 19.282 277.067 19.2267 277.795 19.2267H278.748V26.5746C278.076 26.4641 277.403 26.4089 276.73 26.4089C272.302 26.4089 270.059 28.6187 270.059 32.9836V47.127H262.772V47.1271ZM298.313 43.5358C297.808 44.7516 296.855 45.6907 295.51 46.3535C294.108 47.0718 292.595 47.4032 290.857 47.4032C289.399 47.4032 288.054 47.1823 286.821 46.6852C285.587 46.243 284.522 45.5799 283.625 44.6963C282.728 43.8675 282.056 42.8178 281.551 41.6021C281.047 40.4419 280.766 39.0609 280.766 37.569V19.9448H288.054V36.5194C288.054 39.8897 289.624 41.6022 292.707 41.6022C294.389 41.6022 295.734 41.1051 296.799 40.1659C297.808 39.2266 298.313 38.0113 298.313 36.5194V19.9448H305.6V47.8455C305.6 49.7791 305.264 51.4916 304.647 52.9835C303.975 54.4751 303.078 55.746 301.957 56.7957C300.779 57.8454 299.434 58.619 297.92 59.1712C296.351 59.7239 294.669 60 292.931 60C288.839 60 285.812 59.0055 283.793 56.9614C281.775 54.9173 280.766 52.1547 280.766 48.619H287.549C287.549 50.2211 288.054 51.4916 289.007 52.4309C289.96 53.3701 291.361 53.8123 293.268 53.8123C293.94 53.8123 294.557 53.7019 295.174 53.4253C295.79 53.1492 296.295 52.7626 296.799 52.2652C297.248 51.7681 297.64 51.105 297.921 50.3867C298.201 49.6687 298.313 48.8399 298.313 47.9559V43.5359L298.313 43.5358ZM325.669 33.8124C325.277 34.199 324.772 34.4751 324.043 34.696C323.315 34.9173 322.306 35.1382 320.96 35.4144C318.886 35.8013 317.428 36.3536 316.644 36.9615C315.859 37.569 315.466 38.5083 315.466 39.6684C315.466 41.7129 316.644 42.7074 318.998 42.7074C319.951 42.7074 320.792 42.5413 321.633 42.2099C322.418 41.9338 323.09 41.4916 323.707 40.9393C324.268 40.4419 324.716 39.7791 325.108 39.0608C325.445 38.3424 325.613 37.6241 325.613 36.7957L325.669 33.8124H325.669ZM326.174 47.1271C325.949 46.4087 325.781 45.6352 325.725 44.6963C324.884 45.6352 323.707 46.4088 322.306 46.9614C320.904 47.5689 319.222 47.8454 317.372 47.8454C314.177 47.8454 311.879 47.1823 310.421 45.746C308.907 44.3646 308.179 42.5966 308.179 40.3867C308.179 38.4531 308.515 36.851 309.132 35.6905C309.748 34.5303 310.645 33.6464 311.767 32.9836C312.888 32.3205 314.233 31.8235 315.803 31.4917C317.316 31.2156 318.998 30.9394 320.848 30.6629C322.698 30.3868 323.931 30.0554 324.548 29.6132C325.165 29.2266 325.501 28.5083 325.501 27.5691C325.501 26.6851 325.109 25.9671 324.268 25.4697C323.427 24.9727 322.25 24.7514 320.848 24.7514C319.166 24.7514 317.989 25.1383 317.26 25.8563C316.532 26.5747 316.027 27.5692 315.859 28.7845H309.076C309.132 27.4034 309.356 26.0776 309.804 24.9174C310.197 23.7569 310.926 22.7073 311.879 21.8785C312.832 21.05 314.065 20.3869 315.579 19.8896C317.092 19.4477 318.998 19.2268 321.185 19.2268C323.371 19.2268 325.221 19.4477 326.734 19.9448C328.248 20.4422 329.425 21.1053 330.378 21.9893C331.275 22.9285 331.947 24.0334 332.34 25.3593C332.732 26.7404 332.956 28.2322 332.956 29.945V47.1271H326.174L326.174 47.1271Z" fill="#F7A30A"/>
<defs>
<clipPath id="clip0">
<rect width="86.6667" height="60" fill="white"/>
</clipPath>
</defs>
</svg>
