<svg width="44" height="30" viewBox="0 0 44 30" fill="none" xmlns="http://www.w3.org/2000/svg">
<g clip-path="url(#clip0)">
<path fill-rule="evenodd" clip-rule="evenodd" d="M37.1374 5.65344C36.5581 5.41223 35.886 5.68611 35.6436 6.2622C35.3043 7.06875 35.1495 8.1973 36.7129 8.86061C35.0922 9.84566 31.5186 12.2728 30.2526 13.0196L34.8726 8.61208H34.8731C33.9733 8.00244 33.6083 6.69858 34.0683 5.60561C34.6731 4.16784 36.3522 3.48353 37.7964 4.08589C38.5112 4.3837 39.0405 4.94289 39.3198 5.6062C39.9907 5.33901 40.7626 5.32208 41.4774 5.6202C42.9219 6.22254 43.6093 7.89306 43.0043 9.33054C42.705 10.0417 42.1429 10.5685 41.4767 10.8465C41.7453 11.5138 41.7622 12.2822 41.4629 12.9933C40.8579 14.4311 39.1791 15.1154 37.7343 14.513C36.6179 14.0475 36.1143 12.727 36.36 11.6504L33.9126 12.1358L37.3243 10.3471C36.8717 11.7845 37.5838 12.608 38.3938 12.9458C38.9726 13.187 39.645 12.9131 39.8874 12.337C40.1633 11.6816 39.6803 10.2695 38.8179 9.73832C39.8233 9.88854 41.1531 9.32966 41.4288 8.67423C41.6712 8.09782 41.3962 7.42899 40.8172 7.18775C40.1583 6.91296 38.8605 7.30823 38.206 8.25213C38.2719 7.07399 37.7953 5.92823 37.1364 5.65344H37.1374Z" fill="#F7A30A"/>
<path fill-rule="evenodd" clip-rule="evenodd" d="M13.3304 2.19656C13.314 2.13793 13.3014 2.07755 13.2923 2.016C13.2577 1.77681 13.2826 1.53733 13.3747 1.31273C13.7018 0.514073 14.7071 0.236672 15.4832 0.125245C16.2597 0.0138185 17.3028 -0.00309971 17.8433 0.671294C17.9784 0.839894 18.0663 1.03474 18.1085 1.24447C21.233 1.02366 24.8724 2.13384 27.6024 3.66785C31.495 5.85556 33.6776 11.3207 30.6176 10.903C26.2326 10.3045 15.0665 8.70685 8.12081 13.8307C7.7216 17.2526 8.60443 19.9995 9.55319 21.4766C12.1641 25.54 13.8603 25.0519 18.2656 25.0519C22.6713 25.0519 24.3672 25.54 26.9781 21.4766C28.046 19.8151 28.5598 17.8975 28.5922 15.933C28.6055 15.1416 29.2829 14.6909 30.0217 14.6991H34.6648C35.2148 14.6991 35.7067 15.0558 35.7438 15.6273C35.7826 16.2203 35.3043 16.6619 34.7298 16.6931C34.3274 16.715 33.7822 17.0624 33.4188 17.3602C33.1936 19.7571 32.3955 22.0571 31.091 24.0876C29.6941 26.2609 27.9995 28.47 25.465 29.3588C24.4231 29.7243 23.3302 29.8512 22.2319 29.9002C20.9159 29.9588 19.5831 29.9217 18.2651 29.9217C16.947 29.9217 15.6142 29.9588 14.2982 29.9002C13.2 29.8512 12.1073 29.7243 11.0653 29.3588C8.53055 28.47 6.83614 26.2609 5.4395 24.0876C4.16948 22.1113 3.38514 19.8898 3.13367 17.5775C2.90505 17.35 2.54395 17.0959 2.33555 16.9749C2.12422 16.8521 1.82233 16.7068 1.57407 16.6931C0.999588 16.6619 0.521245 16.22 0.559933 15.627C0.597157 15.0556 1.08898 14.6988 1.63943 14.6988H3.0894C3.32857 11.3598 4.54876 8.25299 6.94312 5.80159C8.57805 4.12756 11.1714 2.93397 13.3298 2.19627L13.3304 2.19656Z" fill="#EF5350"/>
</g>
<defs>
<clipPath id="clip0">
<rect width="43.5714" height="30" fill="white"/>
</clipPath>
</defs>
</svg>
